<?xml version="1.0" encoding="UTF-8" standalone="no"?>
<svg width="13px" height="16px" viewBox="0 0 13 16" version="1.1" xmlns="http://www.w3.org/2000/svg" xmlns:xlink="http://www.w3.org/1999/xlink" xmlns:sketch="http://www.bohemiancoding.com/sketch/ns">
    <!-- Generator: Sketch 3.4.4 (17249) - http://www.bohemiancoding.com/sketch -->
    <title>Page 1</title>
    <desc>Created with Sketch.</desc>
    <defs></defs>
    <g id="Page-1" stroke="none" stroke-width="1" fill="none" fill-rule="evenodd" sketch:type="MSPage">
        <g id="Edit-Feild" sketch:type="MSArtboardGroup" transform="translate(-75.000000, -349.000000)" fill="#ACABAB">
            <g id="Page-1" sketch:type="MSLayerGroup" transform="translate(75.000000, 349.000000)">
                <path d="M1.26556757,14.7221333 C1.26556757,15.2526222 1.6907027,15.6817778 2.21667568,15.6817778 L10.7833243,15.6817778 C11.3103514,15.6817778 11.7372432,15.2526222 11.7372432,14.7221333 L11.7372432,4.84302222 L1.26556757,4.84302222 L1.26556757,14.7221333 Z M8.81821622,5.79591111 L10.2935405,5.79591111 L10.2935405,13.7834667 C10.2935405,14.1959111 9.96256757,14.5290667 9.55640541,14.5290667 C9.14883784,14.5290667 8.81821622,14.1959111 8.81821622,13.7834667 L8.81821622,5.79591111 Z M5.76286486,5.79591111 L7.23959459,5.79591111 L7.23959459,13.7834667 C7.23959459,14.1959111 6.90897297,14.5290667 6.50140541,14.5290667 C6.09383784,14.5290667 5.76286486,14.1959111 5.76286486,13.7834667 L5.76286486,5.79591111 Z M2.68608108,5.79591111 L4.16,5.79591111 L4.16,13.7834667 C4.16,14.1959111 3.82902703,14.5290667 3.42286486,14.5290667 C3.0167027,14.5290667 2.68608108,14.1959111 2.68608108,13.7834667 L2.68608108,5.79591111 Z" id="Fill-1" sketch:type="MSShapeGroup"></path>
                <path d="M11.7344324,1.34577778 L7.99745946,1.34577778 L7.99745946,0.798577778 C7.99745946,0.798577778 7.98094595,0.319288889 7.50451351,0.319288889 L5.46386486,0.319288889 C4.98883784,0.319288889 5.00535135,0.798577778 5.00535135,0.798577778 L5.00535135,1.34577778 L1.26662162,1.34577778 C0.741,1.34577778 0.314459459,1.77635556 0.314459459,2.30542222 L0.314459459,3.88337778 L12.6869459,3.88337778 L12.6869459,2.30542222 C12.6869459,1.77635556 12.2604054,1.34577778 11.7344324,1.34577778 L11.7344324,1.34577778 Z" id="Fill-2" sketch:type="MSShapeGroup"></path>
            </g>
        </g>
    </g>
</svg>